<svg id="Calque_3" data-name="Calque 3" xmlns="http://www.w3.org/2000/svg" viewBox="0 0 1630.93 930.92"><defs><style>.cls-1{fill:#36e007;}</style></defs><path class="cls-1" d="M1071.33,488.68l-79.11,79.11-62.78,62.77L796.75,763.26l-.38.42q-13.95,15.3-29.25,29.24l-.45.42q-14.16,12.85-29.39,24.48a440.78,440.78,0,0,1-268.41,90.77c-244.36,0-443.14-198.78-443.14-443.13S224.51,22.32,468.87,22.32c128.62,0,244.63,55.09,325.65,142.93l-61.59,61.56C667.71,154.74,573.5,109.37,468.87,109.37c-196.38,0-356.09,159.75-356.09,356.09S272.49,821.54,468.87,821.54A356.52,356.52,0,0,0,733.69,703.23L1009.8,427.12Z"/><path class="cls-1" d="M733.69,703.23a352.23,352.23,0,0,1-27.05,27Z"/><polygon class="cls-1" points="621.51 503.41 621.13 503.79 559.6 442.23 559.99 441.88 621.51 503.41"/><path class="cls-1" d="M1134.94,110.41a17.65,17.65,0,0,0-2,.18l-.17-.18Z"/><path class="cls-1" d="M898.73,704.87l-61.59,61.59c-.24-.28-.49-.52-.73-.8L898,704.1C898.25,704.34,898.45,704.62,898.73,704.87Z"/><path class="cls-1" d="M622,597.17c-.46.56-.91,1.08-1.4,1.61l0,0c-2.61,3.06-5.29,6-8.11,8.88l-.39-.38-.1-.11Z"/><path class="cls-1" d="M848.87,152.27c-4.91,4.87-9.64,9.88-14.31,15l-.38.42-3.24,3.23L704.1,297.74,560,441.88l-.39-.38L810.78,190.32l19.43-19.43Z"/><path class="cls-1" d="M897.24,110.41c-1.47,1-2.86,2.13-4.25,3.21-2.4,1.84-4.81,3.69-7.17,5.57q-10.67,8.5-20.76,17.65L863.81,138c-5.08,4.67-10.06,9.4-14.94,14.28l41.82-41.86Z"/><path class="cls-1" d="M930.49,195.2,621.89,503.79l-.38-.38L897.24,227.68a354,354,0,0,1,27-27.05C926.34,198.78,928.4,197,930.49,195.2Z"/><path class="cls-1" d="M620.57,598.81c-2.61,3.06-5.29,6-8.11,8.88q-6.16,6.31-12.85,12.08l12.46-12.46Z"/><path class="cls-1" d="M1457.25,477.5c-7.76,148.44-128.16,268.21-276.63,275.21-92.13,4.39-175.62-34.4-231.85-97.88l60.09-60.09,1.61-1.6a203.43,203.43,0,0,0,168.45,72.49c104.38-6.16,188-92.1,191.6-196.59,3.69-108.63-78.06-199.33-183.11-210.06-6.82-.69-13.79-2-20.82-2-11.14,0-21.27-.69-30.64,0l-32.38,2a44.86,44.86,0,0,0-31.68,13.13l-13.37,13.37-93.6,91.89L685.23,657.06a293.08,293.08,0,0,1-54.6,48.5,289.35,289.35,0,0,1-164.34,51c-160,0-290.31-129.8-291.08-289.66-.77-160.72,130-292.33,290.76-292.5a290.32,290.32,0,0,1,219.57,99.86l-61.7,61.69a203.78,203.78,0,0,0-158.4-74.51c-111.7.46-202.81,91.64-203.18,203.34-.38,112.82,91.3,204.73,204,204.73a203.18,203.18,0,0,0,133.32-49.72q6.69-5.74,12.85-12.08c2.82-2.85,5.5-5.81,8.11-8.88l0,0c.48-.53.94-1,1.39-1.6l330-330a102.37,102.37,0,0,1,7-8.19c9.49-9.48,19.2-19,27.65-27.47a85.41,85.41,0,0,1,7.59-6.33l.14-.14,41.05-41a44.86,44.86,0,0,1,31.68-13.13h99.51c2.16,0,4.28,0,6.41.11a291.33,291.33,0,0,1,284.25,306.5Z"/><path class="cls-1" d="M1173.1,170.89l-.1.11c-2.13-.07-4.25-.11-6.41-.11Z"/><path class="cls-1" d="M1605.06,476.46c-5.71,235-196.55,426-431.54,432-132.8,3.38-253-52-336.38-142l61.59-61.59C966.56,779.45,1065.62,825.23,1175,821.3c187-6.65,338.19-159.4,343-346.48A354.6,354.6,0,0,0,1452,259a358.9,358.9,0,0,0-90.11-88.09,353.56,353.56,0,0,0-172.49-60.48h-155.6a44.88,44.88,0,0,0-31.69,13.13l-47.35,47.35-24.3,24.31c-2.09,1.77-4.15,3.58-6.2,5.43a354,354,0,0,0-27,27.05L621.51,503.41,560,441.88,704.1,297.74,830.94,170.89l3.24-3.23.38-.42c4.67-5.09,9.4-10.1,14.31-15s9.86-9.61,14.94-14.28l1.25-1.15q10.08-9.14,20.76-17.65c2.36-1.88,4.77-3.73,7.17-5.57,1.39-1.08,2.78-2.16,4.25-3.21h-6.55l75-75a44.9,44.9,0,0,1,31.69-13.13h164.72a440.62,440.62,0,0,1,264.87,88.09C1537.79,193.28,1608.71,326.84,1605.06,476.46Z"/><path class="cls-1" d="M885.82,119.19q-10.67,8.5-20.76,17.65C871.75,130.68,878.68,124.83,885.82,119.19Z"/><polygon class="cls-1" points="830.94 170.89 810.78 191.05 810.78 190.32 830.21 170.89 830.94 170.89"/><path class="cls-1" d="M930.49,195.2,866.7,259h-.77l31.31-31.3a354,354,0,0,1,27-27.05C926.34,198.78,928.4,197,930.49,195.2Z"/><path class="cls-1" d="M1173.1,170.89l-.1.11c-2.13-.07-4.25-.11-6.41-.11Z"/></svg>