<svg xmlns="http://www.w3.org/2000/svg" viewBox="0 0 39.41 39.28"><g id="ELEMENTS"><path d="M26.62,38.37A1.63,1.63,0,0,1,25,36.74V30.45a4,4,0,0,0-1.07-3.12,1.63,1.63,0,0,1,1-2.75c4.69-.52,9-2.06,9-9.77a7.17,7.17,0,0,0-2-5,1.62,1.62,0,0,1-.35-1.69,6.59,6.59,0,0,0,.23-3.9,13.41,13.41,0,0,0-4.31,2.09,1.6,1.6,0,0,1-1.33.22,20.22,20.22,0,0,0-10.53,0,1.64,1.64,0,0,1-1.33-.22A13,13,0,0,0,10,4.26a6.56,6.56,0,0,0,.23,3.89A1.62,1.62,0,0,1,9.9,9.84a7.2,7.2,0,0,0-2,5c0,7.61,4.35,9.2,9.05,9.79a1.63,1.63,0,0,1,1,2.74,3.85,3.85,0,0,0-1.07,2.95v6.41a1.63,1.63,0,1,1-3.25,0V33.9c-4.91.75-7-1.89-8.42-3.7-.63-.81-1.18-1.5-1.74-1.64a1.63,1.63,0,0,1,.79-3.16,6.73,6.73,0,0,1,3.51,2.78c1.36,1.73,2.46,3.13,5.86,2.42v-.15a6.67,6.67,0,0,1,.48-3c-4.58-1-9.43-3.85-9.43-12.58A10.45,10.45,0,0,1,6.9,8.34a9.79,9.79,0,0,1,.48-6.4,1.65,1.65,0,0,1,1-.92C9,.85,11.22.52,15.52,3.24a23.5,23.5,0,0,1,10.81,0C30.63.52,32.85.85,33.44,1a1.65,1.65,0,0,1,1,.92A9.79,9.79,0,0,1,35,8.34a10.41,10.41,0,0,1,2.24,6.47c0,9.24-5.61,11.79-9.42,12.62a7,7,0,0,1,.47,3.15v6.16A1.63,1.63,0,0,1,26.62,38.37Z"/></g></svg>