<svg id="Layer_1" data-name="Layer 1" xmlns="http://www.w3.org/2000/svg" viewBox="0 0 4000 4000"><defs><style>.cls-1{fill:#fff;}.cls-2{fill:#371a45;}.cls-3{opacity:0.35;}.cls-4{fill:#22a7f0;}.cls-5{opacity:0.5;}.cls-6{fill:#111a28;}.cls-7{opacity:0.2;}.cls-8{fill:#390075;}.cls-9{fill:#00c10e;}.cls-10{fill:#fcf7fb;}.cls-11{opacity:0.7;}.cls-12{fill:#93603e;}</style></defs><path class="cls-1" d="M2494.52,2104v690.66c0,116.16-95.06,211.16-211.17,211.16H1585.09c-116.11,0-211.16-95-211.16-211.16V2104c0-68.39,32.94-129.41,83.7-168.05a209.76,209.76,0,0,1,127.46-43.11h698.26a210,210,0,0,1,137.17,51C2465.76,1982.63,2494.52,2040.09,2494.52,2104Z"/><path class="cls-2" d="M2283.33,1892.83c116.14,0,211.17,95,211.17,211.17v690.68c0,116.14-95,211.16-211.17,211.16H1585.11c-116.14,0-211.16-95-211.16-211.16V2104c0-116.14,95-211.17,211.16-211.17h698.22m0-35.8H1585.11c-136.18,0-247,110.79-247,247v690.68c0,136.18,110.79,247,247,247h698.22c136.18,0,247-110.79,247-247V2104c0-136.18-110.79-247-247-247Z"/><path class="cls-1" d="M2199.71,1868.14c260.08,89.3,279.28,295.25,459.2,414.81,77.88,51.74,159.23,39.11,256.38,13,51.78-13.89,76.63,37.44,80,125.32,4.74,122.42-37.38,209-292.16,214-296.93,5.8-348.34-345.73-348.34-345.73"/><g class="cls-3"><path class="cls-2" d="M2703.17,2635.34c-297,5.77-348.34-345.74-348.34-345.74l-29.58-80.38c122.49,74.25,102.26,337.41,377.92,332,210.66-4.11,275.92-64,289.57-153.87,1.25,10.57,2.14,21.93,2.59,33.93C3000.08,2543.73,2958,2630.33,2703.17,2635.34Z"/></g><path class="cls-2" d="M2696.07,2653.3c-124.94,0-226.46-62-294-179.77-51.07-89.08-64.46-177.62-65-181.35a17.9,17.9,0,1,1,35.42-5.18c.13.84,13.18,86.37,61.15,169.61,62.81,109,153.42,163.28,269.14,160.81,121.53-2.37,199.71-23.77,239-65.43,27-28.62,38-68.71,35.62-130-2.88-74.25-20.33-97.88-30.48-105.36-4.53-3.33-12.27-7.31-27-3.36-93,24.95-183.69,42.53-270.92-15.43-75.86-50.41-124.44-116.05-171.41-179.53-69.31-93.66-134.77-182.12-283.7-233.26a17.9,17.9,0,0,1,11.62-33.87C2365,1906,2436.87,2003.09,2506.38,2097c47.22,63.8,91.81,124.07,162.44,171,68.09,45.25,137.52,38.65,241.83,10.68,21.66-5.81,41.56-2.67,57.55,9.12,27.23,20.06,42.38,64.74,45,132.79,1.87,48.25-1.6,109.57-45.34,155.94-46.89,49.69-130.88,74.05-264.36,76.66C2701,2653.27,2698.54,2653.3,2696.07,2653.3Z"/><path class="cls-1" d="M1667.78,1868.14c-260.08,89.3-297.68,302.38-474.73,426.15-52.84,36.95-125.6,57.19-240.75,39.17-53-8.29-115.94-15.67-126.84,71.6-8.86,70.92,113.78,230.76,338.87,230.26,297-.66,348.34-345.73,348.34-345.73Z"/><g class="cls-3"><path class="cls-2" d="M1545.78,2226.77l-33.1,62.81s-51.37,345.06-348.36,345.76c-225.1.5-347.71-159.35-338.87-230.29.6-4.8,1.34-9.29,2.24-13.53,23.47,113.67,153.5,183.05,342.26,182.65C1448.62,2573.57,1393.72,2291.37,1545.78,2226.77Z"/></g><path class="cls-2" d="M1163.24,2653.23c-171.86,0-268.36-88.07-301.92-126-38-42.89-58-89.39-53.63-124.39,4.28-34.21,16.64-59.24,36.75-74.39,33-24.83,77.85-17.81,110.62-12.67,98.14,15.34,170.49,3.86,227.74-36.16,67.8-47.4,114.12-107.89,163.17-171.94,75.58-98.7,153.74-200.76,316-256.48a17.9,17.9,0,0,1,11.62,33.87c-152,52.2-226.84,149.9-299.2,244.38-48.54,63.39-98.73,128.94-171.08,179.51-64.41,45-147.41,58.84-253.78,42.19-33-5.17-64.29-8.6-83.54,5.9-12.25,9.23-19.7,25.66-22.77,50.22-2.29,18.39,8.09,54.62,44.92,96.24,30.34,34.29,117.82,113.91,275.1,113.91h1c278.37-.62,330.18-327.17,330.67-330.47a17.91,17.91,0,1,1,35.42,5.28c-.55,3.65-13.93,90.66-65,178.94-68.75,118.81-172.83,181.77-301,182Z"/><path class="cls-2" d="M1453.55,2468.22a12.5,12.5,0,0,1-12.5-12.5c0-148.35-143.14-254.73-144.58-255.79a12.5,12.5,0,1,1,14.73-20.19c6.32,4.61,154.85,114.77,154.85,276A12.5,12.5,0,0,1,1453.55,2468.22Z"/><path class="cls-1" d="M972.14,2351.21c-47-54.31,2.92-88.27,53.11-59.53,45.6,26.11,86.33,57.59,138,42.63,0,0-3.92,32.84-45.44,68.87S972.14,2351.21,972.14,2351.21Z"/><path class="cls-2" d="M958.61,2362.93c-9.42-9.69-18.38-21.26-22.89-37.6-2.14-8.09-3.06-17.72-.17-27.59a44.7,44.7,0,0,1,17.1-24.63,55.86,55.86,0,0,1,24.83-9.88,72.68,72.68,0,0,1,23.66.77,83.46,83.46,0,0,1,20.91,7,104.88,104.88,0,0,1,9.35,5.1c1.59.93,2.91,1.79,4.13,2.62l3.79,2.52c20.12,13.44,38.5,27.62,58.33,38a120.82,120.82,0,0,0,31,11.58,100.67,100.67,0,0,0,33.89,1.13h0a2.58,2.58,0,0,1,1.39,4.92,92.9,92.9,0,0,1-36.56,8c-12.81.28-25.62-2.16-37.73-5.8-24.26-7.54-45.83-19.49-66.68-29.88l-3.9-2c-1.34-.69-2.6-1.3-3.64-1.73-2.2-1-4.45-1.84-6.67-2.63a62.11,62.11,0,0,0-13.23-2.8c-8.54-.92-16.37,1.36-19.56,4.18a8,8,0,0,0-2.69,4.15c-.49,1.57-.51,4.22.2,7.57a49.32,49.32,0,0,0,4.39,11.28,130.36,130.36,0,0,0,7.75,12.38l.57.84a17.91,17.91,0,0,1-27.64,22.59Z"/><path class="cls-2" d="M1185.22,2528.73a56.28,56.28,0,0,1-25.62-3,66.89,66.89,0,0,1-22-14.63,168.51,168.51,0,0,1-16.72-19L1106,2472.91a301.5,301.5,0,0,0-31.18-34.55,256.23,256.23,0,0,0-36.07-28.05c-13.54-9-26.61-17.38-40-24.84a303.4,303.4,0,0,0-40.9-19.08c-27.79-10.69-56.77-14.68-86.2-13.92h-.48a17.92,17.92,0,0,1-3.11-35.64c34.9-5.21,71.63,0,103.87,13.36,32.52,12.9,60.74,33.63,85.72,54a253.82,253.82,0,0,1,37,35.44c11.21,12.88,20.51,27.15,29,41.29s15.62,28.65,24.42,40.86a55.19,55.19,0,0,0,15.8,15.1,54.13,54.13,0,0,0,21.43,6.77h0a2.57,2.57,0,0,1,0,5.11Z"/><path class="cls-1" d="M2464.07,2992.63H1404.36s-1.16-118.41,19.7-294.26c3.72-31.55,8.17-65,13.51-99.94,23.38-154.1,63.14-337.38,130.84-519.54q15.27-41.11,32.47-82,13.71-32.46,28.68-64.57,10.92-23.52,22.61-46.8H2216.3q11.67,23.28,22.6,46.8,15.22,32.46,29,65.34,19.68,46.8,36.85,93.91c64.83,178,103.31,356.34,126.11,506.84,5.34,35.07,9.79,68.63,13.55,100.29C2465.23,2874.37,2464.07,2992.63,2464.07,2992.63Z"/><g class="cls-3"><path class="cls-2" d="M2464.07,2992.63H1404.36s-1.16-118.41,19.7-294.26c3.72-31.55,8.17-65,13.51-99.94,10.07-66.35,23.19-138.15,40.26-212.9,55.35,193.39,233.68,340.63,452.11,340.63h9.48c217.85,0,395.67-146.47,451.57-339.12,16.91,74.2,29.88,145.47,39.87,211.35,5.34,35.07,9.79,68.63,13.55,100.29C2465.23,2874.37,2464.07,2992.63,2464.07,2992.63Z"/></g><path class="cls-2" d="M2360.61,2244.56c27,58,44.56,119.34,58.15,181.29,7.42,30.87,12.67,62.18,18.28,93.4,2.66,15.63,4.86,31.34,7.31,47l3.67,23.49,3.24,23.56,6.37,47.13,5.82,47.19c3.45,31.51,6.77,63,9.36,94.64,5.26,63.31,8.91,126.29,9.16,190.52l.07,17.73H1925.2v-35.81h18v35.81H1386.41l.06-17.73c.25-64.54,3.93-127.81,9.24-191.43s12.54-126.81,22-189.82l3.41-23.65,3.89-23.57c2.65-15.71,5.06-31.46,7.92-47.13,6-31.29,11.48-62.68,17.75-93.94,3.12-15.63,5.82-31.36,9.64-46.85s8-30.89,12.34-46.23a394,394,0,0,1,15.66-45.32,361,361,0,0,1,20.57-43.78,6.14,6.14,0,0,1,11.47,3.13v.18c-.62,32.69-6.85,63.53-12.62,94.52-3,15.45-6.28,30.84-10,46.12l-10.62,46c-14.62,61.23-24.62,123.48-34,185.72s-16.4,124.9-21.69,187.64-8.87,125.92-9.11,188.08l-17.9-17.73h538.86v35.81h-18v-35.81h538.87l-17.91,17.73c-.23-61.86-3.83-124.86-9-187.18s-12.07-124.79-21.72-186.72l-3.48-23.24-4-23.16c-2.78-15.41-5.31-30.87-8.3-46.25-6.16-30.71-11.73-61.52-18.09-92.17-11.59-61.62-26-122.34-32.41-185.86v-.14a6,6,0,0,1,11.49-3.16Z"/><g class="cls-3"><path class="cls-2" d="M1931.31,2601.41q6.64,10.2,12.89,20C1940,2614.88,1935.7,2608.17,1931.31,2601.41Z"/></g><path class="cls-1" d="M1681.21,2605.15c-65.66,26.58-167.27,21-236.54,12.64a74.39,74.39,0,0,1-64.6-84.77h0a74.38,74.38,0,0,1,77-63.47c64.8,3,162,4.46,223.54-9.19"/><g class="cls-3"><path class="cls-2" d="M1681.23,2605.14c-65.68,26.62-167.3,21-236.56,12.68a74.53,74.53,0,0,1-56.94-108.39,74.24,74.24,0,0,0,56.94,39.35c69.15,8.39,170.59,13.95,236.27-12.5Z"/></g><path class="cls-2" d="M1550.67,2642.62c-38,0-75.8-3.14-108.15-7.06a92.33,92.33,0,0,1,15.38-183.89c67.51,3.16,160.27,4.19,218.82-8.79,9.3-2.06,32.43-2.15,46,41.51,13.73,44.15,12.16,118.34-34.8,137.36h0C1649.36,2637.36,1599.83,2642.62,1550.67,2642.62Zm-97.15-155.25a56.53,56.53,0,0,0-6.71,112.64c99,12,179.84,7.92,227.68-11.45,13.78-5.58,17.9-27.94,19-37.29,4-33.5-6-64.82-12.49-72.69-62.46,13.06-156.4,12.06-224.81,8.86C1455.32,2487.4,1454.42,2487.37,1453.52,2487.37Zm227.69,117.79h0Z"/><path class="cls-1" d="M2420,2617.78c-32.49,3.94-72.16,7.26-111.88,6.89-2.73,0-5.43-.05-8.16-.13s-5.76-.12-8.63-.25c-1.94,0-3.85-.12-5.72-.2l-6.75-.38c-2.86-.16-5.72-.37-8.54-.58h-.21c-2.82-.2-5.68-.45-8.5-.74-1.86-.17-3.73-.38-5.55-.58-1.58-.13-3.15-.34-4.69-.5-2.44-.29-4.89-.62-7.25-1s-4.52-.66-6.72-1a6.27,6.27,0,0,1-1.32-.21c-2.61-.37-5.18-.83-7.71-1.33s-5.1-1-7.59-1.49l-.62-.12c-1.41-.33-2.82-.62-4.19-1-1.53-.33-3.06-.7-4.6-1.11h0c-4.68-1.17-9.29-2.49-13.76-3.9-2.41-.75-4.81-1.58-7.17-2.41s-4.69-1.74-6.93-2.65l.29-69.51.34-75.28c15.75,3.52,33.86,6,53.14,7.75,56,5.1,122.16,3.69,170.37,1.45,1.16,0,2.32-.08,3.52-.08a74.43,74.43,0,0,1,8.87,148.31Z"/><g class="cls-3"><path class="cls-2" d="M2420,2617.78c-32.5,3.94-72.17,7.26-111.88,6.89-2.74,0-5.43-.05-8.17-.13s-5.76-.12-8.62-.25c-1.95,0-3.86-.12-5.72-.21l-6.76-.37c-2.86-.16-5.72-.37-8.54-.58h-.2c-2.82-.21-5.68-.45-8.5-.74-1.87-.17-3.73-.38-5.56-.58-1.57-.13-3.15-.34-4.68-.5-2.45-.29-4.89-.62-7.26-1s-4.51-.66-6.71-1a7.1,7.1,0,0,1-1.33-.21c-2.61-.37-5.18-.83-7.71-1.33s-5.1-1-7.58-1.49l-.63-.12c-1.41-.33-2.81-.62-4.18-1-1.54-.33-3.07-.7-4.6-1.12h0c-4.68-1.16-9.28-2.48-13.76-3.89-2.4-.75-4.81-1.58-7.17-2.41s-4.68-1.74-6.92-2.65l.29-69.52,0-5c2.11.87,4.35,1.74,6.59,2.53s4.77,1.66,7.17,2.4c4.48,1.41,9.08,2.74,13.76,3.9h0c1.53.41,3.06.79,4.6,1.12,1.37.33,2.77.62,4.18,1l.63.13q3.72.8,7.58,1.49c2.53.49,5.1.95,7.71,1.32a6.37,6.37,0,0,0,1.33.21c2.2.37,4.43.71,6.71,1s4.81.66,7.26,1c1.53.17,3.11.37,4.68.5,1.83.21,3.69.41,5.56.58,2.82.29,5.68.54,8.5.74h.2c2.82.21,5.68.42,8.54.59l6.76.37c1.86.08,3.77.16,5.72.21,2.86.12,5.76.2,8.62.24s5.43.13,8.17.13c39.71.37,79.38-2.94,111.88-6.88a74.06,74.06,0,0,0,55.38-36.56A74.5,74.5,0,0,1,2420,2617.78Z"/></g><path class="cls-2" d="M2314,2642.62c-49.16,0-98.68-5.25-137.25-20.87h0c-47-19-48.53-93.21-34.8-137.36,13.57-43.67,36.69-43.6,46-41.51,58.55,13,151.32,11.94,218.83,8.79a92.33,92.33,0,0,1,15.38,183.89C2389.76,2639.48,2352,2642.62,2314,2642.62Zm-123.82-54.06c47.84,19.37,128.69,23.44,227.68,11.45a56.52,56.52,0,0,0-9.41-112.57c-68.41,3.2-162.35,4.2-224.8-8.87-6.46,7.88-16.54,39.2-12.5,72.7,1.13,9.35,5.25,31.71,19,37.29Z"/><path class="cls-1" d="M2208.79,2412.51v232a78.53,78.53,0,0,1-78.29,78.29H1703.16c-43,0-78.24-35.24-78.24-78.29v-232a78.47,78.47,0,0,1,78.24-78.24H2130.5a78.47,78.47,0,0,1,78.29,78.24Z"/><g class="cls-3"><path class="cls-2" d="M2208.79,2412.51v232a78.52,78.52,0,0,1-78.3,78.27H1703.15a78.45,78.45,0,0,1-78.22-78.23v-86.84c45.78,89,201.33,124,329.31,111,28.58-2.89,49-30,42.21-58a110.61,110.61,0,0,1-3.13-26.31c0-50.61,33.54-91.65,74.91-91.65,40,0,72.75,38.38,74.86,86.72,51.28-67,54-156.74,49.74-214.32A77.86,77.86,0,0,1,2208.79,2412.51Z"/></g><path class="cls-2" d="M2130.53,2740.73H1703.17a96.26,96.26,0,0,1-96.15-96.15V2412.5a96.26,96.26,0,0,1,96.15-96.15h427.36a96.27,96.27,0,0,1,96.15,96.15v232.08A96.26,96.26,0,0,1,2130.53,2740.73Zm-427.36-388.58a60.42,60.42,0,0,0-60.34,60.35v232.08a60.41,60.41,0,0,0,60.34,60.35h427.36a60.41,60.41,0,0,0,60.34-60.35V2412.5a60.42,60.42,0,0,0-60.34-60.35Z"/><circle class="cls-4" cx="2068.24" cy="2528.54" r="67.48"/><path class="cls-1" d="M2135.74,2528.56a63.57,63.57,0,0,1-.88,10.75,67.48,67.48,0,0,0-133.24,0,63.57,63.57,0,0,1-.88-10.75,67.5,67.5,0,0,1,135,0Z"/><g class="cls-3"><path class="cls-2" d="M2135.71,2528.53a67.48,67.48,0,0,1-135,0,65.93,65.93,0,0,1,4.63-24.42,67.43,67.43,0,0,0,125.69,0A65.93,65.93,0,0,1,2135.71,2528.53Z"/></g><path class="cls-2" d="M2068.24,2609.45a80.91,80.91,0,1,1,80.91-80.91A81,81,0,0,1,2068.24,2609.45Zm0-135a54.06,54.06,0,1,0,54.06,54.05A54.11,54.11,0,0,0,2068.24,2474.49Z"/><path class="cls-2" d="M1877,2737.83a15,15,0,0,1-15-15v-112a92.72,92.72,0,0,0-36.76-73.68,122.82,122.82,0,0,1-48.71-97.64V2334.25a15,15,0,0,1,30,0v105.28a92.7,92.7,0,0,0,36.75,73.68,122.83,122.83,0,0,1,48.72,97.64v112A15,15,0,0,1,1877,2737.83Z"/><g class="cls-3"><path class="cls-2" d="M2420.52,1943.85c-126.61,159.17-315.25,253.7-520.18,238.73-178.32-13-334.73-106.51-442.71-246.62a209.76,209.76,0,0,1,127.46-43.11h698.26A210,210,0,0,1,2420.52,1943.85Z"/></g><path class="cls-1" d="M2631.78,1595.36h0a14.32,14.32,0,0,1-14.41-14.25l-2.32-412.79a14.32,14.32,0,0,1,14.25-14.41h0a150.35,150.35,0,0,1,151.19,149.5l.79,140.76A150.35,150.35,0,0,1,2631.78,1595.36Z"/><path class="cls-2" d="M2631.7,1598.73a17.72,17.72,0,0,1-17.7-17.6l-2.32-412.79a17.7,17.7,0,0,1,17.6-17.8,153.73,153.73,0,0,1,154.58,152.85l.79,140.76a153.71,153.71,0,0,1-152.85,154.58h-.1Zm-1.53-441.45h-.85a10.94,10.94,0,0,0-10.9,11l2.32,412.79a11,11,0,0,0,11,10.9h.06a147,147,0,0,0,146.15-147.8l-.79-140.76a147,147,0,0,0-146.95-146.15Z"/><g class="cls-3"><path class="cls-2" d="M2780.91,1378.16l.38,66a150.41,150.41,0,0,1-149.52,151.21,14.36,14.36,0,0,1-14.41-14.28l-.66-109.74a14.36,14.36,0,0,0,13.09,8.43l9.79-.08A150.22,150.22,0,0,0,2780.91,1378.16Z"/></g><path class="cls-2" d="M2631.69,1614.11a33.08,33.08,0,0,1-33.07-32.89l-2.32-412.8a33.08,33.08,0,0,1,32.89-33.26,169.09,169.09,0,0,1,170,168.14l.8,140.77a169.11,169.11,0,0,1-168.14,170h-.2Zm2.13-441.41,2.27,403.82a131.6,131.6,0,0,0,126.44-132.24l-.79-140.77a131.62,131.62,0,0,0-127.92-130.81Z"/><path class="cls-1" d="M1266.77,1161.57h0a14.33,14.33,0,0,1,14.41,14.25l2.33,412.79a14.33,14.33,0,0,1-14.25,14.41h0a150.33,150.33,0,0,1-151.19-149.5l-.8-140.76A150.36,150.36,0,0,1,1266.77,1161.57Z"/><path class="cls-2" d="M1268.4,1606.39c-84.36,0-153.23-68.38-153.7-152.85l-.8-140.76c-.47-84.76,68.1-154.1,152.85-154.58h0a17.87,17.87,0,0,1,12.55,5.11,17.57,17.57,0,0,1,5.25,12.49l2.33,412.79a17.72,17.72,0,0,1-17.6,17.8Zm-1.61-441.45c-81,.45-146.6,66.76-146.15,147.8l.79,140.76c.46,80.76,66.31,146.15,147,146.16h.84a11,11,0,0,0,10.9-11l-2.32-412.79a10.93,10.93,0,0,0-3.26-7.74,10.37,10.37,0,0,0-7.77-3.16Z"/><g class="cls-3"><path class="cls-2" d="M1282.89,1474.09l.64,114.52a14.36,14.36,0,0,1-14.29,14.41,150.27,150.27,0,0,1-151.16-149.47l-.34-59.32a150.42,150.42,0,0,0,137.46,87.54l15.07-.09A14.47,14.47,0,0,0,1282.89,1474.09Z"/></g><path class="cls-2" d="M1268.39,1621.77c-92.8,0-168.55-75.22-169.07-168.14l-.79-140.76c-.53-93.24,74.9-169.52,168.14-170h0a33.08,33.08,0,0,1,33.26,32.89l2.32,412.8a33.07,33.07,0,0,1-32.89,33.26Zm-5.93-441.36c-70.51,2.74-126.84,61.16-126.44,132.25l.79,140.76c.4,71.08,57.39,128.86,127.92,130.81Z"/><circle class="cls-1" cx="1949.36" cy="1378.47" r="703.44"/><path class="cls-2" d="M1950.37,2085.31q-23.52,0-47.18-1.55c-388.9-25.45-684.58-362.56-659.13-751.46s362.52-684.57,751.47-659.13,684.59,362.56,659.13,751.46c-12.33,188.39-97.29,360.71-239.22,485.2C2285.4,2023.9,2121.76,2085.31,1950.37,2085.31Zm-1.48-1406.93c-365.37,0-673.9,284.63-698.1,654.36-25.22,385.19,267.65,719.09,652.84,744.31,15.47,1,30.91,1.5,46.2,1.51,365.38,0,673.91-284.64,698.11-654.37,25.21-385.19-267.65-719.09-652.85-744.3C1979.62,678.88,1964.18,678.38,1948.89,678.38Z"/><g class="cls-3"><path class="cls-2" d="M2650.93,1326.81a699.79,699.79,0,0,1,.38,97.61c-25.43,387.66-360.25,681.35-747.91,656s-681.34-360.25-656-747.91c.72-11.15,1.71-22.29,3-33.24,25,344.79,300.93,627.06,655.63,650.29C2282.5,1974.19,2609.11,1697.88,2650.93,1326.81Z"/></g><path class="cls-2" d="M1949.85,2100.67q-23.7,0-47.66-1.56c-397.37-26-699.48-370.46-673.47-767.82s370.36-699.48,767.82-673.47S2696,1028.28,2670,1425.64C2645,1807,2326.73,2100.67,1949.85,2100.67Zm-.95-1406.92c-357.34,0-659.1,278.39-682.77,640-24.66,376.73,261.78,703.29,638.51,728,15.13,1,30.23,1.48,45.18,1.48,357.35,0,659.1-278.39,682.77-640,24.66-376.73-261.77-703.29-638.5-727.95C1979,694.24,1963.85,693.75,1948.9,693.75Z"/><path class="cls-2" d="M2647.87,1442.3c-6.91,137.47-58,262.86-139.59,364.63-61.21,76.29-303.4,203-594,191-269.44-11.13-507.25-167-560.49-249.09-71-109.45-109.22-239.33-102.3-376.81,18.3-363.8,338.46-498.9,724.07-479.5S2666.18,1078.49,2647.87,1442.3Z"/><path class="cls-2" d="M1954.1,2017.52c-13.4,0-26.9-.27-40.58-.84-279.33-11.53-519.48-171.38-575.44-257.62-75.78-116.79-112.19-250.94-105.3-388,9-178.63,87.55-312.76,233.51-398.67,127.27-74.9,303.68-109,510.23-98.62s378.65,62,497.76,149.32c136.6,100.13,201.3,241.47,192.32,420.1h0c-6.89,137-56.58,266.83-143.7,375.42C2465.15,1890.65,2242.66,2017.52,1954.1,2017.52ZM1908.71,909.61c-226.07,0-618.13,58.86-638.48,463.39-6.49,129.07,27.85,255.52,99.31,365.65,50.73,78.19,282.8,229.72,545.53,240.57,291.26,12.06,524.05-116,578.58-184,82.15-102.41,129-224.77,135.5-353.85,8.31-165.24-51.25-295.77-177-388-113.18-83-278.29-132.1-477.48-142.12C1955,910.28,1932.77,909.61,1908.71,909.61Zm739.16,532.69h0Z"/><g class="cls-5"><ellipse class="cls-1" cx="2423.45" cy="1381.46" rx="124.49" ry="90.21" transform="translate(526.87 3427.06) rotate(-76.85)"/></g><g class="cls-5"><ellipse class="cls-1" cx="2300.7" cy="1622.19" rx="57.14" ry="49.03" transform="translate(-40.77 3184.96) rotate(-68.91)"/></g><g class="cls-3"><path class="cls-6" d="M2529.15,1096.06c81.26,85.74,126,200.09,118.72,346.21-6.92,137.51-58,262.89-139.58,364.66-61.22,76.29-303.43,203-594,191-102.6-4.21-200.59-29.45-285.58-63.65,357.51,7.11,652.59-148.54,728.49-243.17,103.62-129.15,168.4-288.32,177.15-462.77A711.29,711.29,0,0,0,2529.15,1096.06Z"/></g><path class="cls-2" d="M2603.88,1138.57a18.24,18.24,0,0,1-12.6-5l-1.87-1.67-1.06-1.84c-109.93-171.78-333.7-278.39-613.94-292.49-281.77-14.14-515.06,72.54-640,237.89l-1.32,1.56a18.15,18.15,0,0,1-25.74,1.29,18.49,18.49,0,0,1-1.85-25.39c132.45-174.9,376.87-266.75,670.75-252C2268,815.61,2502.08,928,2618.67,1109.41a18.33,18.33,0,0,1-14.79,29.16Z"/><g class="cls-5"><path class="cls-1" d="M1397.42,1596.37s-94.63-364.57,106-497.86,478.87-118.71,471.46-101.19c0,0-311.82,59.08-444.62,296.57C1427.85,1477,1397.42,1596.37,1397.42,1596.37Z"/></g><path class="cls-1" d="M1968.52,3176.38S1527.85,3226.32,1332,3058c-267.61-229.93-38.15-518.08,160.65-441.32,173.07,66.83,244.24,119.38,551.66,169.77,257.6,42.22,478.86,306.67,294,460.17C2207.81,3355,1968.52,3176.38,1968.52,3176.38Z"/><g class="cls-3"><path class="cls-2" d="M2338.3,3246.64c-130.5,108.38-369.78-70.24-369.78-70.24S1527.86,3226.32,1332,3058c-77.13-66.29-113-137.43-120.11-203.23a440.15,440.15,0,0,0,46.12,45.63c195.9,168.33,636.57,118.36,636.57,118.36s239.27,178.68,369.77,70.29c51-42.38,71.14-93.2,68-145.52C2418.07,3040.46,2441.59,3160.87,2338.3,3246.64Z"/></g><path class="cls-2" d="M2233.82,3299.57c-116,0-241.49-84.22-270.25-104.66-59.53,5.94-455,38.41-643.26-123.31-152.44-131-147.88-276-92.79-368.12,58.67-98.07,172.88-141.59,271.55-103.48,38.37,14.81,71.55,28.84,103.63,42.4,111,46.93,206.86,87.45,444.48,126.4,171.11,28,333.54,154.53,369.79,288,21.13,77.79-2.74,150.11-67.22,203.65C2315.59,3288.78,2275.31,3299.57,2233.82,3299.57ZM1973.54,3157.8l5.69,4.24c1.76,1.31,138.13,101.64,254.46,101.65,34.08,0,66.43-8.6,93.19-30.82,53.82-44.7,73-102.35,55.54-166.72-32.87-121-182.66-236.06-341-262-241.84-39.63-339.53-80.93-452.63-128.75-31.83-13.46-64.74-27.37-102.58-42-82.39-31.81-178.24,5.39-227.94,88.46-47.6,79.57-50.16,206.09,85.41,322.58,187.77,161.34,618.53,114.65,622.86,114.16Z"/><path class="cls-2" d="M1556.91,3170.53A12.5,12.5,0,0,1,1551,3147c184.94-98.58,133-442,132.43-445.47a12.5,12.5,0,0,1,24.69-3.91c2.34,14.84,55.12,364.57-145.36,471.44A12.46,12.46,0,0,1,1556.91,3170.53Z"/><path class="cls-1" d="M1882.53,3176.38s440.67,49.94,636.55-118.36c267.6-229.93,38.14-518.08-160.65-441.32-173.07,66.83-244.25,119.38-551.66,169.77-257.6,42.22-478.87,306.67-294,460.17C1643.24,3355,1882.53,3176.38,1882.53,3176.38Z"/><g class="cls-3"><path class="cls-2" d="M2519.06,3058c-195.84,168.29-636.51,118.37-636.51,118.37s-239.32,178.62-369.82,70.24c-63.4-52.67-79-118.42-61.71-183.72,9.44,31.9,18.7,81,51.94,106.76,101.34,78.65,213.42,43.85,283.68-18.47,53.32-47.29,44.62-86,78.85-105.27,38.38-21.59,92.86,58.22,212.75,64.46,225.54,11.74,379.38-55.08,452-129.22,63.12-64.48,93.21-139.16,105.44-198.52C2653.31,2865.93,2625.5,2966.57,2519.06,3058Z"/></g><path class="cls-2" d="M1617.24,3299.57c-41.51,0-81.77-10.78-115.94-39.16-64.48-53.54-88.35-125.86-67.21-203.65,36.25-133.43,198.68-259.91,369.79-288,237.62-39,333.48-79.47,444.48-126.4,32.08-13.56,65.26-27.59,103.62-42.4,98.68-38.12,212.88,5.41,271.56,103.48,55.09,92.08,59.64,237.14-92.8,368.12-188.21,161.72-583.73,129.25-643.26,123.31C1858.73,3215.35,1733.18,3299.57,1617.24,3299.57Zm808.49-677.47a168.4,168.4,0,0,0-60.85,11.3c-37.84,14.61-70.75,28.52-102.57,42-113.12,47.82-210.8,89.12-452.64,128.75-158.37,26-308.17,141-341,262-17.49,64.37,1.71,122,55.54,166.72,118.12,98.09,345.37-69.14,347.65-70.83l5.67-4.23,7,.79c4.34.49,435.23,47.07,622.87-114.16,135.57-116.49,133-243,85.4-322.58C2555.05,2658.74,2490.62,2622.1,2425.73,2622.1Z"/><path class="cls-2" d="M2294.15,3170.53a12.43,12.43,0,0,1-5.87-1.47c-200.49-106.87-147.71-456.6-145.36-471.44a12.5,12.5,0,0,1,24.69,3.9c-.54,3.46-52.35,347,132.43,445.48a12.5,12.5,0,0,1-5.89,23.53Z"/><g class="cls-7"><path class="cls-8" d="M3055.86,2549.73V2553h-9.43C3049.62,2552,3052.76,2550.89,3055.86,2549.73Z"/></g><path class="cls-9" d="M2826.25,2410.11A189.69,189.69,0,0,0,3016,2599.84h181.94l-64.86-379.47H3016C2911.21,2220.37,2826.25,2305.34,2826.25,2410.11Zm55.64,0c0-63.37,70.78-114.73,134.09-114.73h53.81L3109,2524.83h-93a114.51,114.51,0,0,1-81.11-33.61C2914.11,2470.47,2881.89,2441.81,2881.89,2410.11Z"/><g class="cls-3"><path class="cls-2" d="M2826.25,2410.08A189.69,189.69,0,0,0,3016,2599.84h182l-6.06-35.44H3016a189.67,189.67,0,0,1-188.88-172C2826.53,2398.21,2826.25,2404.12,2826.25,2410.08ZM3103,2489.37H3109l-39.23-229.45H3016c-63.3,0-91.21,33.56-128.77,98.53-3,5.24-6.23,28.16-5.31,33.94,8.5-54.94,76.78-97,134.08-97h53.82Z"/></g><path class="cls-2" d="M3219.14,2617.74H3016a207.58,207.58,0,0,1-207.63-207.63c0-114.5,93.14-207.64,207.63-207.64h132.18ZM3016,2238.27c-94.74,0-171.83,77.09-171.83,171.84A171.8,171.8,0,0,0,3016,2581.94h160.71L3118,2238.27Zm114.24,304.46H3016c-61.09,0-152-35.32-152-132.62,0-83,77.28-132.63,152-132.63h68.92ZM3016,2313.29c-56.32,0-116.18,33.93-116.18,96.82,0,95.71,115,96.82,116.18,96.82h71.8l-33.09-193.64Z"/><path class="cls-9" d="M3107.82,2593.46c17.64,37.27,52.82,63.56,93.7,68.9a525.75,525.75,0,0,0,135.83,0c41.08-5.36,76.23-31.92,93.92-69.37A665.22,665.22,0,0,0,3495,2308.82c0-14.12-.4-28.19-1.32-42.32L3487,2160.05c0,22.68-97.38,41.06-217.55,41.06s-217.5-18.38-217.5-41.06l-6.78,106.45A666,666,0,0,0,3107.82,2593.46Z"/><path class="cls-10" d="M3328.75,2445.62c-7.86-15.73-19.66-28.29-31.9-40.64a130.85,130.85,0,0,1-16.86-20.57,98.15,98.15,0,0,1-13.89-32.24,86.44,86.44,0,0,1-1.58-8.94,98.69,98.69,0,0,1-.82-12.4c0-4.45,1.27-6.43,5.69-7.38a52.74,52.74,0,0,1,23.5.14h0a57.66,57.66,0,0,1,16,6.53c37.81,22.17,60.62,72.76,52.17,115.81-3,15.49-9.13,29.53-22.88,39.9A85.9,85.9,0,0,0,3328.75,2445.62Z"/><path class="cls-10" d="M3245.82,2334.88a109.16,109.16,0,0,0,15.28,54.32c7.36,12.54,17.06,23.83,28.37,34.33a104.79,104.79,0,0,1,15.3,18.32c9.8,14.48,16.05,30.09,15.67,48-.1,4.77-1.87,6.85-6.41,7.83-14.38,3.11-27.8.39-40.2-6.85-25.26-14.78-43.43-42.51-50.19-72.18a107.45,107.45,0,0,1-1.21-43.87,1.67,1.67,0,0,1,.06-.38,88.54,88.54,0,0,1,2.26-9.15C3228.38,2353.35,3234.54,2342.82,3245.82,2334.88Z"/><g class="cls-11"><path class="cls-1" d="M3495,2308.8a665.34,665.34,0,0,1-63.74,284.2,123.79,123.79,0,0,1-28,38.18A665.39,665.39,0,0,0,3462,2358c0-14.14-.41-28.2-1.3-42.3l-3.72-58.36a31.81,31.81,0,0,0-38.71-29.13c-44.53,10.29-121.42,14-176,5.23-51.69-8.32-100.7-26.4-143.62-47.93,39.88,9.49,101.55,15.62,170.79,15.62,120.17,0,217.56-18.4,217.56-41.09l6.71,106.48C3494.58,2280.65,3495,2294.7,3495,2308.8Z"/></g><g class="cls-3"><path class="cls-2" d="M3109.24,2596.43c16.94,35.34,50.22,60.19,89.05,65.49a526.54,526.54,0,0,0,142.31,0,115,115,0,0,0,88.08-63.53c.08-.18.17-.36.26-.53-.33.6-.7,1.24-1.07,1.84a525,525,0,0,1-131.4,16.73h-1.32c-82.17-.21-155.63-52.4-183.84-129.58a666.4,666.4,0,0,1-39.16-270.68l2.4-37.89c-14.51-5.5-22.64-11.69-22.64-18.25l-6.79,106.45A665.83,665.83,0,0,0,3109.24,2596.43Z"/></g><path class="cls-1" d="M3051.91,2160.05c0,22.68,97.38,41.06,217.5,41.06S3487,2182.73,3487,2160.05s-97.38-41.11-217.55-41.11S3051.91,2137.37,3051.91,2160.05Z"/><path class="cls-1" d="M3051.9,2160c0,7.5,10.61,14.5,29.11,20.55,37.61,12.26,107.87,20.51,188.38,20.51s150.83-8.25,188.49-20.51c18.5-6,29.11-13,29.11-20.55,0-22.66-97.42-41.11-217.6-41.11S3051.9,2137.37,3051.9,2160Z"/><path class="cls-12" d="M3084.06,2180.56c37.61,12.25,107.87,20.5,188.39,20.5s150.83-8.25,188.49-20.5c-37.66-12.3-108-20.56-188.49-20.56S3121.67,2168.26,3084.06,2180.56Z"/><path class="cls-2" d="M3269.41,2684.67a545.49,545.49,0,0,1-73.13-5c-44.89-6.1-83.54-34.5-103.37-75.95a685.29,685.29,0,0,1-65.65-338.4l6.78-106.45,35.77,1.13a8.32,8.32,0,0,0-1.52-5.05c8.53,9.53,78.35,28.21,201.12,28.21s192.64-18.68,201.16-28.21a8.4,8.4,0,0,0-1.51,5.05l35.77-1.12,6.72,106.45c.91,14,1.35,28.25,1.35,43.44A687.34,687.34,0,0,1,3445,2605.73a133.15,133.15,0,0,1-102.4,74A545.3,545.3,0,0,1,3269.41,2684.67Zm-201.78-489.84-4.63,72.81a649.26,649.26,0,0,0,62.2,320.67h0c14.62,30.55,43,51.45,75.9,55.93a509.21,509.21,0,0,0,136.71,0,97.44,97.44,0,0,0,75-54.06,651.25,651.25,0,0,0,64.32-281.35c0-14.41-.42-27.87-1.28-41.15l-4.6-72.84c-11.64,4.51-26.45,8.41-44.65,11.85-42.15,8-98,12.33-157.16,12.33s-115-4.38-157.12-12.33C3094.09,2203.24,3079.28,2199.34,3067.63,2194.83Z"/><path class="cls-2" d="M3269.41,2219c-59.18,0-115-4.38-157.12-12.33-54.14-10.22-78.29-24.6-78.29-46.63s24.15-36.41,78.28-46.65c42.16-8,98-12.36,157.13-12.36s115,4.39,157.17,12.36c54.14,10.24,78.28,24.63,78.28,46.65s-24.14,36.41-78.29,46.63C3384.42,2214.63,3328.61,2219,3269.41,2219Zm-192.63-59c23.21,9.87,89.09,23.16,192.63,23.16s169.46-13.29,192.68-23.16c-23.22-9.9-89.12-23.21-192.68-23.21S3100,2150.15,3076.78,2160.05Z"/><path class="cls-1" d="M2746.12,2286.64c-15.69,53.63,1.58,104.27,32.56,117.31,65.18,27.44,112.33-99.73,112.33-99.73s-21.9-91.9-64.85-90.38C2795.68,2214.92,2760.33,2238.12,2746.12,2286.64Z"/><g class="cls-3"><path class="cls-2" d="M2891,2304.21s-47.15,127.2-112.34,99.74c-31-13-48.28-63.67-32.57-117.3a123.61,123.61,0,0,1,12.45-28.88c-1.42,39.1,14.4,71.76,38.4,81.85,37.49,15.81,69-19.6,89-52.5C2889.37,2297.2,2891,2304.21,2891,2304.21Z"/></g><path class="cls-2" d="M2797.17,2426.73a66.35,66.35,0,0,1-25.84-5.32c-42.12-17.74-61.18-79.27-43.38-140.08h0c18.11-61.87,63.86-85.22,97.54-86.41,55.61-1.8,79.69,87,83.94,104.91l1.33,5.58-2,5.39c-3.33,9-33.95,88.23-84.7,110.21A67.52,67.52,0,0,1,2797.17,2426.73ZM2764.3,2292c-13.12,44.81.93,85.78,21.73,94.54,7.75,3.26,15,3.19,23-.23,28.14-12.16,52.6-60,62.16-83.27-8.48-30.87-27.62-70.93-44.32-70.23-22.74.8-50.89,19.42-62.53,59.19Z"/><path class="cls-1" d="M3007.5,2276.79s-60.11-98.46-145-49.14c-66,38.34-56.17,181.42-49.43,213.82,24.12,116,108.31,183.08,172.31,82.11C2988.39,2518.75,3019.9,2401.59,3007.5,2276.79Z"/><g class="cls-3"><path class="cls-2" d="M2985.33,2523.58c-64,101-148.17,33.89-172.32-82.09-3.31-15.91-7.33-58.51-2.79-102.3.85,8.38,1.85,15.15,2.79,19.69,24.15,116,105.15,125.66,172.32,82.14,3.43-2.22,18.93-64.43,23.76-144.62C3016.67,2413.61,2988.26,2519,2985.33,2523.58Z"/></g><path class="cls-2" d="M2915.52,2591.86a73.37,73.37,0,0,1-13.14-1.17c-49-8.92-91.38-66-107.89-145.36-6.11-29.37-20.51-188.2,58.46-234.06,79.85-46.37,146.58,16.13,170.72,55.65l2.25,3.69.43,4.31c12.28,123.6-17.88,247.53-25,258.8C2970.93,2581.68,2938,2591.86,2915.52,2591.86ZM2910,2233c-11.81,0-24.58,3.16-38.06,11-54,31.34-47.09,161.45-40.4,193.59,12.94,62.23,44.84,109.85,77.58,115.81,25.3,4.6,46.08-18.14,59.33-38.64,5.06-14.77,30.72-120,20.62-231.53C2980.82,2271.27,2951.18,2233,2910,2233Zm59.31,280.41-.25.4C2969.17,2513.71,2969.26,2513.58,2969.34,2513.45Z"/><path class="cls-2" d="M2524.48,2596.93a12.5,12.5,0,0,1-12.36-10.72c-36.08-251.93,92.52-341.5,98-345.2a12.5,12.5,0,0,1,14,20.73c-1.34.92-120.94,85.68-87.24,320.92a12.51,12.51,0,0,1-10.6,14.15A13.68,13.68,0,0,1,2524.48,2596.93Z"/><g class="cls-11"><path class="cls-1" d="M3246.32,1689.05l-35.39,2.28a42.44,42.44,0,0,0-28.72,14.58,40.61,40.61,0,0,0-9.71,29.21,38.19,38.19,0,0,0,13.35,26.39,38.82,38.82,0,0,0,27.3,9.2l35.45-1.19c23.63-.9,47.27-1.3,70.9-1.92s47.27-1.29,70.91-1.52l8.86-.13c1.61,0,3.82.1,5.7.19s3.91.48,5.85.82a53.94,53.94,0,0,1,21.51,9.6,53.32,53.32,0,0,1,2.16,83.77A54.89,54.89,0,0,1,3413,1871.2a53.31,53.31,0,0,1-12,1.67c-1.11.07-1.82.06-2.54.07h-2.21l-4.44,0-70.9.28q-70.9.13-141.81-.49l-35.46-.42-2.21,0-1.5,0a15.59,15.59,0,0,0-2.74.23,23.09,23.09,0,0,0-5.29,1.41,23,23,0,0,0-13.82,16.24,23.56,23.56,0,0,0,15.39,27.27c3.82,1.46,6.89,1.53,13.63,1.65l17.73.44,35.45.86c23.63.46,47.27,1.47,70.9,2.21,14.26.1,28.73,7.55,36.57,19.42a43,43,0,0,1,4.49,40.07,41.49,41.49,0,0,1-29.5,25.25,39.39,39.39,0,0,1-9.77,1c-3.16-.05-6-.28-9-.41l-17.73-.92,2.46-2.46-2.46,39.45-2.46-39.45a2.3,2.3,0,0,1,2.16-2.44h0l.28,0,17.73-.92c2.9-.17,6-.26,8.76-.51a31.45,31.45,0,0,0,7.72-1.59c9.92-3.28,17.87-11.39,20.61-20.93a29.59,29.59,0,0,0-29.92-38.17c-23.63.74-47.27,1.75-70.9,2.21l-35.45.86-17.73.43c-3.09,0-5.44.25-9.8,0a49.19,49.19,0,0,1-44.27-34.6,50.41,50.41,0,0,1,39.41-64.23,42.81,42.81,0,0,1,6.06-.72l2.93-.15,2.21,0,35.46-.42q70.91-.6,141.81-.49l70.9.28,4.44,0h2.21c.76,0,1.53,0,1.89,0a24.49,24.49,0,0,0,5.54-.68,25.67,25.67,0,0,0,10-4.83,25.12,25.12,0,0,0-.14-39.46,26.86,26.86,0,0,0-10.43-5.08l-2.91-.52-3.16-.19-8.86-.13c-23.64-.24-47.27-1-70.91-1.53s-47.27-1-70.9-1.92l-35.45-1.18c-13.64-.18-27.74-5.8-37.21-15.68a51.18,51.18,0,0,1-14.87-36.62,49,49,0,0,1,15.27-35.14,48.38,48.38,0,0,1,34.46-13.37C3222.75,1687.5,3234.47,1688.23,3246.32,1689.05Z"/></g></svg>