<svg xmlns="http://www.w3.org/2000/svg" viewBox="0 0 39.41 39.28"><g id="ELEMENTS"><path d="M29.07,8.27a2.07,2.07,0,1,0,2.08,2.07A2.07,2.07,0,0,0,29.07,8.27Z"/><path d="M19.85,10.93a8.71,8.71,0,1,0,8.71,8.71A8.72,8.72,0,0,0,19.85,10.93Zm0,14.29a5.58,5.58,0,1,1,5.58-5.58A5.58,5.58,0,0,1,19.85,25.22Z"/><path d="M26.77,37.33H12.64A10.64,10.64,0,0,1,2,26.7V12.58A10.64,10.64,0,0,1,12.64,2H26.77A10.64,10.64,0,0,1,37.4,12.58V26.7A10.64,10.64,0,0,1,26.77,37.33Zm-14.13-32a7.31,7.31,0,0,0-7.3,7.3V26.7a7.31,7.31,0,0,0,7.3,7.3H26.77a7.31,7.31,0,0,0,7.3-7.3V12.58a7.31,7.31,0,0,0-7.3-7.3Z"/></g></svg>